<?xml version="1.0" ?>
<svg version="1.1" viewBox="0 0 32 32" xmlns="http://www.w3.org/2000/svg">
  <path d="m18.60806,24.74294l-5.21613,0c-1.39294,0 -1.8375,-0.44456 -2.13387,-2.28206c-0.35565,-2.22278 -0.97802,-4.50484 -3.23044,-8.56512c-0.77056,-1.36331 -1.21512,-2.90444 -1.21512,-4.59375c0,-5.06794 4.11956,-9.1875 9.1875,-9.1875c5.06794,0 9.1875,4.11956 9.1875,9.1875c0,1.65968 -0.47419,3.23044 -1.21512,4.59375c-2.28206,4.08992 -2.8748,6.37198 -3.23044,8.56512c-0.32601,1.86714 -0.74093,2.28206 -2.13387,2.28206l0,0zm-0.47419,5.80887c-0.38528,0.8002 -1.21512,1.33367 -2.16351,1.33367c-0.94839,0 -1.77823,-0.5631 -2.16351,-1.33367l4.32702,0l0,0zm1.12621,-3.34899l-6.60907,0c-0.2371,0 -0.41492,-0.20746 -0.41492,-0.47419l0,-0.59274c0,-0.26673 0.17782,-0.47419 0.41492,-0.47419l6.57944,0c0.2371,0 0.41492,0.20746 0.41492,0.47419l0,0.59274c0.02964,0.26673 -0.14819,0.47419 -0.38528,0.47419l0,0zm0,2.45988l-6.60907,0c-0.2371,0 -0.41492,-0.20746 -0.41492,-0.47419l0,-0.59274c0,-0.26673 0.17782,-0.47419 0.41492,-0.47419l6.57944,0c0.2371,0 0.41492,0.20746 0.41492,0.47419l0,0.59274c0.02964,0.2371 -0.14819,0.47419 -0.38528,0.47419l0,0z"/>
</svg>
