<?xml version="1.0" ?>
<svg version="1.1" viewBox="0 0 32 32" xmlns="http://www.w3.org/2000/svg">
  <g>
    <path d="m16.40177,0.10582c-2.76822,0 -5.07891,0.96695 -6.92823,2.53753s-2.93162,2.84511 -3.24304,6.68986l5.64601,0c0.12303,-1.92237 0.58248,-2.36644 1.37642,-3.09694s1.78012,-1.18803 2.96238,-1.18803c1.18226,0 2.14537,0.33449 2.89125,1.09767c0.7478,0.76126 1.12074,1.69553 1.12074,2.84511s-0.35948,2.10308 -1.07268,2.88164l-3.40644,3.40068c-0.99579,0.99579 -1.20341,1.7955 -1.49945,2.40104c-0.29605,0.60555 -0.00577,1.52636 -0.00577,2.77014l0,2.34529l3.84474,0l0,-1.59941c0,-1.24185 0.55557,-2.20688 1.1169,-2.89125c0.21531,-0.24799 0.64015,-0.55172 1.00156,-0.90928c0.35756,-0.35948 0.86122,-0.77856 1.3745,-1.26108c0.51327,-0.48059 0.96119,-0.87852 1.27261,-1.18995c0.3095,-0.3095 0.77664,-0.84008 1.36873,-1.58596c1.02462,-1.24377 1.54751,-2.79897 1.54751,-4.6656c0,-2.7067 -0.86507,-4.8117 -2.60674,-6.32268c-1.74551,-1.50522 -3.99277,-2.25879 -6.76098,-2.25879z"/>
    <path d="m16.04998,24.99093c-0.98041,0 -1.81856,0.3441 -2.52023,1.02655c-0.69974,0.68436 -1.04962,1.49945 -1.04962,2.4491c0,0.94773 0.35756,1.75705 1.07268,2.42603c0.71512,0.66899 1.56289,1.00156 2.54138,1.00156c0.98041,0 1.82049,-0.34218 2.52023,-1.02462c0.69782,-0.68436 1.04962,-1.50137 1.04962,-2.4491s-0.35948,-1.75705 -1.07461,-2.42796c-0.71128,-0.66899 -1.55904,-1.00156 -2.53945,-1.00156z"/>
  </g>
</svg>
