<?xml version="1.0" ?>
<svg version="1.1" viewBox="0 0 32 32" xmlns="http://www.w3.org/2000/svg">
  <path d="m9.19643,14.86607l0,-6.80357l-6.80357,0c-2.26786,0 -2.26786,2.26786 -2.26786,2.26786s0,9.1423 0,11.33929s2.26786,2.26786 2.26786,2.26786l2.26786,0l0,6.80357l6.87444,-6.80357l6.80357,0c0,0 2.19699,-0.14174 2.19699,-2.26786l0,-2.26786c0,0 -2.26786,0 -6.80357,0s-4.53572,-4.53572 -4.53572,-4.53572zm20.41072,-13.60715c0,0 -13.60715,0 -15.875,0s-2.26786,2.26786 -2.26786,2.26786s0,9.21207 0,11.33929c0,2.12612 2.19699,2.26786 2.19699,2.26786l6.80357,0l6.87444,6.80357l0,-6.80357l2.26786,0c0,0 2.26786,-0.07087 2.26786,-2.26786l0,-11.33929c0,-2.26786 -2.26786,-2.26786 -2.26786,-2.26786z"/>
</svg>
