<?xml version="1.0" ?>
<svg version="1.1" viewBox="0 0 32 32" xmlns="http://www.w3.org/2000/svg">
  <path d="m27.25001,0.24999c-0.68766,0 -1.37756,0.15834 -2.01263,0.47475l-12.55079,6.27525l-7.9366,0c-2.48513,0 -4.5,2.01488 -4.5,4.5l0,4.5c0,2.48513 2.01488,4.5 4.5,4.5l0,6.75001c0,2.48513 2.01488,4.5 4.5,4.5c2.48513,0 4.5,-2.01488 4.5,-4.5l0,-6.21816l11.48738,5.74369c0.63506,0.31641 1.32497,0.47447 2.01263,0.47447c0.82181,0 1.64363,-0.22641 2.36644,-0.67247c1.32497,-0.81956 2.13356,-2.26744 2.13356,-3.82753l0,-18.00001c0,-1.56009 -0.80859,-3.00797 -2.13356,-3.82753c-0.72281,-0.44606 -1.54463,-0.67247 -2.36644,-0.67247l0,0l0,0z"/>
</svg>
